<svg width="496" height="496" xmlns="http://www.w3.org/2000/svg" xmlns:svg="http://www.w3.org/2000/svg" preserveAspectRatio="xMidYMid meet" version="1.0">
 <g class="layer">
  <title>Layer 1</title>
  <g fill="#000000" id="svg_1" transform="matrix(0.0530618 0 0 -0.0503596 24.7957 29.7477)">
   <path d="m4203.17,-1388.38l0,-255l36,3c20,2 40,10 45,17c5,8 9,77 9,154c0,117 3,146 19,175c25,47 60,71 115,77c46,6 46,6 46,44c0,38 -1,39 -35,39c-39,0 -87,-21 -122,-53c-25,-22 -23,-25 -27,33c-1,10 -14,16 -43,18l-43,3l0,-255z" id="svg_2"/>
   <path d="m3738.17,-1182.38c-54,-23 -99,-56 -126,-93c-29,-41 -51,-139 -39,-176c4,-15 11,-46 15,-67c5,-30 19,-52 59,-90c57,-55 106,-76 182,-76c103,0 224,62 224,115c0,40 -34,41 -81,3c-39,-32 -45,-33 -128,-33c-98,0 -128,14 -161,76l-19,37l27,10c15,5 65,15 112,21c67,8 255,37 268,40c7,2 0,43 -13,82c-46,133 -195,203 -320,151zm167,-78c28,-15 78,-73 78,-92c0,-6 -8,-13 -17,-15c-39,-11 -122,-27 -193,-36c-41,-6 -85,-14 -97,-17c-20,-6 -23,-3 -23,25c0,115 142,192 252,135z" id="svg_3"/>
   <path d="m5507.17,-1205.38c-3,-6 -71,-140 -151,-297c-136,-269 -143,-287 -126,-300c52,-39 304,-153 357,-162c158,-26 289,45 361,195c25,51 29,72 29,140c0,158 -71,242 -304,360c-82,41 -151,75 -154,75c-3,0 -8,-5 -12,-11zm160,-149c176,-87 244,-186 218,-321c-12,-63 -71,-149 -124,-179c-37,-21 -56,-25 -128,-25c-82,1 -88,2 -192,54c-60,29 -108,58 -108,64c-1,12 222,457 229,457c2,0 49,-23 105,-50z" id="svg_4"/>
   <path d="m3183.17,-1333.38c-62,-19 -123,-69 -147,-120l-16,-33l-13,25c-15,28 -40,37 -72,26c-26,-10 -28,-27 -7,-55c8,-10 15,-26 15,-35c0,-15 16,-57 55,-144c7,-16 31,-77 54,-135c50,-131 112,-284 117,-289c6,-7 74,28 74,38c0,8 -27,76 -51,126c-5,11 -15,38 -23,60l-13,40l101,0c97,0 103,1 147,32c72,50 103,104 107,190c3,52 0,80 -12,104c-9,18 -16,37 -16,44c0,22 -104,115 -140,125c-41,11 -124,12 -160,1zm134,-84c22,-12 53,-39 70,-60c29,-37 31,-44 31,-122l0,-84l-39,-35c-63,-58 -131,-70 -204,-35c-65,32 -102,95 -102,174c0,76 30,124 98,160c59,30 96,31 146,2z" id="svg_5"/>
   <path d="m4796.17,-1591.38c-31,-21 -31,-76 -1,-97c30,-21 54,-20 78,4c26,26 25,64 -2,90c-26,24 -45,25 -75,3z" id="svg_6"/>
   <path d="m2550.17,-1658.38c-146,-87 -188,-240 -102,-370c42,-64 72,-88 136,-110c81,-29 172,-12 245,43c136,104 144,284 19,400c-59,54 -80,61 -178,60c-66,-1 -89,-5 -120,-23zm192,-66c62,-31 102,-90 108,-158c8,-104 -60,-182 -165,-190c-53,-4 -61,-1 -101,29c-74,57 -86,80 -86,164c0,64 3,77 25,100c68,74 145,93 219,55z" id="svg_7"/>
   <path d="m2015.17,-1827.38c-12,-13 -22,-27 -22,-32c0,-10 57,-72 200,-220c58,-60 143,-152 189,-202c46,-51 87,-93 91,-93c4,0 19,11 34,25l27,25l-97,108c-154,170 -385,412 -393,412c-4,0 -17,-10 -29,-23z" id="svg_8"/>
   <path d="m6098.17,-1833.38c-50,-13 -112,-60 -150,-116c-35,-50 -37,-57 -37,-133c0,-70 3,-87 26,-126c50,-86 157,-156 237,-156c38,0 39,1 39,34c0,37 6,33 -88,51c-35,7 -97,66 -123,116c-23,46 -25,107 -3,137c15,22 40,29 46,13c2,-7 116,-107 184,-161c10,-9 38,-33 62,-54c41,-37 43,-38 62,-21c51,46 81,166 61,241c-12,46 -74,122 -124,152c-36,23 -144,35 -192,23zm175,-100c72,-57 96,-145 55,-207l-16,-25l-27,20c-15,10 -38,30 -52,42c-14,13 -58,53 -98,88c-69,61 -71,65 -55,83c40,45 136,45 193,-1z" id="svg_9"/>
   <path d="m6557.17,-2166.38c-8,-18 -27,-53 -41,-78c-52,-93 -97,-177 -135,-250c-21,-41 -43,-79 -48,-84c-15,-15 -12,-34 12,-66c23,-32 49,-37 95,-19c27,11 65,21 206,53c38,9 77,20 87,26c10,5 30,10 43,10c14,0 50,10 81,21c55,21 55,21 38,45c-9,13 -22,25 -28,28c-6,2 -60,-9 -120,-25c-60,-16 -129,-34 -154,-39c-25,-6 -56,-15 -70,-19c-14,-5 -42,-12 -63,-16l-38,-6l36,68c20,37 55,100 76,138c22,39 53,98 70,132c29,59 30,63 13,87c-22,35 -42,33 -60,-6z" id="svg_10"/>
   <path d="m1946.17,-2235.38c-91,-35 -163,-139 -163,-233c0,-145 119,-266 261,-266c139,0 265,121 277,267c4,50 3,53 -19,53c-38,0 -50,-14 -60,-66c-11,-58 -46,-110 -96,-144c-29,-20 -49,-25 -99,-25c-96,0 -98,10 -18,111c126,159 184,239 181,249c-2,5 -29,23 -60,39c-73,38 -136,42 -204,15zm136,-70c17,-6 31,-13 31,-16c0,-9 -23,-48 -37,-61c-8,-8 -40,-49 -72,-91c-32,-42 -67,-84 -79,-94c-19,-18 -20,-17 -40,7c-45,58 -35,150 24,216c43,47 107,62 173,39z" id="svg_11"/>
   <path d="m1609.17,-2639.38c-17,-25 -16,-27 26,-79c149,-183 239,-298 236,-301c-4,-3 -322,13 -393,21c-50,6 -51,5 -70,-30c-11,-19 -16,-38 -13,-42c4,-3 87,-10 185,-15c98,-5 221,-12 274,-15l96,-7l13,34c8,19 15,37 17,40c3,5 -41,62 -221,284c-107,133 -109,135 -122,135c-6,0 -19,-11 -28,-25z" id="svg_12"/>
   <path d="m6899.17,-2675.38c-32,-5 -67,-15 -76,-24c-9,-8 -22,-15 -29,-15c-22,0 -113,-94 -139,-145c-19,-38 -27,-70 -30,-130c-4,-74 -1,-88 29,-160c65,-157 191,-243 342,-233c98,7 157,35 231,111c72,74 96,131 96,228c0,180 -128,342 -290,368c-36,6 -67,10 -70,10c-3,-1 -32,-5 -64,-10zm148,-89c78,-26 128,-69 162,-137c25,-49 29,-67 28,-138c0,-78 -2,-83 -38,-131c-70,-91 -155,-131 -258,-120c-109,11 -205,100 -227,211c-29,144 31,250 174,311c64,28 89,28 159,4z" id="svg_13"/>
   <path d="m1454.17,-3221.38c-63,-13 -135,-81 -161,-150c-51,-136 -1,-265 124,-324c188,-89 376,37 376,253c0,115 -13,137 -69,116c-17,-6 -21,-13 -15,-26c14,-31 16,-115 4,-154c-18,-61 -72,-114 -130,-128c-27,-6 -53,-9 -58,-6c-10,6 -2,58 16,111c6,17 20,64 32,105c11,41 28,99 37,127c13,39 14,56 6,64c-12,12 -123,21 -162,12zm86,-76c4,-4 -18,-103 -26,-117c-5,-9 -12,-31 -16,-50c-13,-64 -43,-144 -55,-148c-7,-3 -29,13 -51,34c-83,81 -55,223 54,273c34,16 82,20 94,8z" id="svg_14"/>
   <path d="m7243.17,-3485.38c-30,-4 -86,-15 -125,-23c-75,-16 -160,-31 -265,-46c-36,-5 -98,-17 -137,-26c-76,-17 -80,-21 -66,-72c5,-20 10,-23 37,-18c17,3 58,10 91,15c33,6 77,13 97,17l38,7l-25,-49c-56,-109 -15,-249 95,-325c31,-21 46,-24 135,-24c85,0 105,3 135,22c109,67 154,183 117,298c-19,58 -47,101 -81,121l-30,18l34,11c31,10 35,16 35,46c0,39 -5,41 -85,28zm-32,-133c105,-53 127,-203 40,-283c-54,-50 -139,-66 -205,-38c-51,22 -72,43 -94,93c-24,55 -24,89 0,144c21,50 39,67 95,90c58,24 109,22 164,-6z" id="svg_15"/>
   <path d="m1213.17,-3816.38c-32,-13 -74,-41 -101,-69c-88,-87 -109,-154 -116,-380l-5,-167l193,-6c107,-3 258,-8 337,-12l142,-6l1,73c0,41 4,110 8,154c8,93 -7,203 -37,262c-26,50 -95,115 -152,143c-68,34 -196,37 -270,8zm248,-95c49,-30 83,-67 108,-115c22,-44 24,-59 24,-194l0,-147l-167,6c-93,4 -210,10 -262,13l-94,7l7,131c6,116 10,137 34,186c31,61 107,126 157,134c56,8 165,-4 193,-21z" id="svg_16"/>
   <path d="m6944.17,-4123.38c-27,-50 -44,-122 -44,-191c1,-87 17,-132 64,-178c43,-42 112,-45 157,-7c31,26 72,125 72,174c0,41 39,110 66,117c36,9 72,-19 80,-62c9,-49 -1,-147 -19,-182c-14,-29 -13,-30 10,-41c43,-20 51,-14 73,55c24,80 25,143 2,205c-32,86 -62,109 -140,109c-45,0 -53,-4 -85,-39c-26,-29 -38,-54 -46,-98c-21,-107 -42,-164 -64,-172c-80,-30 -119,69 -83,207c8,29 20,60 27,69c11,13 10,18 -10,34c-29,24 -48,24 -60,0z" id="svg_17"/>
   <path d="m1686.17,-4766.38c-11,-13 -37,-47 -57,-76c-43,-62 -104,-148 -129,-182c-14,-20 -21,-23 -35,-14c-9,6 -53,30 -97,54c-44,23 -92,50 -107,58c-35,21 -43,12 -25,-29c19,-46 43,-65 177,-144c63,-37 126,-74 139,-83l25,-15l-53,-24c-30,-12 -62,-23 -72,-23c-10,0 -30,-5 -46,-12c-30,-12 -129,-41 -200,-59c-51,-13 -66,-29 -57,-64c9,-35 26,-40 77,-22c23,8 76,25 117,37c115,34 161,48 215,65c28,9 66,20 85,24c19,4 44,12 55,18c11,6 39,14 62,18c24,4 52,14 64,23c17,15 19,22 10,45c-12,32 -40,35 -100,11c-40,-16 -40,-16 -105,23c-36,21 -66,41 -66,44c0,4 18,33 40,65c135,196 130,184 118,237c-5,26 -11,47 -12,47c-1,0 -12,-10 -23,-22z" id="svg_18"/>
   <path d="m6859.17,-4825.38c-36,-29 -33,-77 7,-99c64,-36 120,53 61,99c-15,11 -30,21 -34,21c-4,0 -19,-10 -34,-21z" id="svg_19"/>
   <path d="m6783.17,-5332.38c-123,-48 -194,-129 -239,-273c-17,-55 -14,-133 7,-158c14,-18 22,-20 42,-13c24,9 25,13 26,93c2,93 19,137 76,197c57,59 102,77 193,76c137,-1 210,-58 260,-201c19,-52 19,-53 -5,-127c-18,-58 -33,-84 -69,-121c-25,-27 -61,-54 -78,-62c-36,-15 -38,-19 -23,-57c11,-31 24,-32 76,-7c53,26 114,93 150,166c26,55 29,69 29,165c0,104 0,106 -38,167c-39,63 -132,143 -167,143c-9,0 -21,5 -28,12c-20,20 -161,20 -212,0z" id="svg_20"/>
   <path d="m1856.17,-5347.38c-13,-6 -69,-36 -125,-66c-165,-86 -187,-105 -217,-187c-15,-38 5,-123 42,-180c31,-50 124,-137 140,-131c7,2 16,15 21,30c9,24 5,30 -38,68c-58,51 -86,104 -86,163c0,38 5,48 36,75c20,18 40,31 46,29c5,-2 28,-38 51,-80c52,-94 92,-141 140,-164c33,-16 42,-16 75,-5c66,24 112,81 112,140c0,38 -39,126 -74,168c-15,17 -43,37 -63,44l-35,11l27,22l27,21l-22,28c-24,31 -27,31 -57,14zm69,-174c33,-34 40,-47 45,-95c5,-48 3,-58 -16,-77c-33,-33 -80,-28 -118,12c-33,35 -93,140 -93,162c0,28 42,47 93,42c41,-4 56,-11 89,-44z" id="svg_21"/>
   <path d="m2088.17,-5780.38c-9,-14 -15,-27 -13,-29c2,-1 13,-7 24,-13c12,-6 31,-27 42,-45c27,-47 12,-79 -73,-148c-80,-65 -168,-128 -176,-129c-4,0 -22,20 -40,45c-23,29 -42,44 -57,45c-25,0 -40,-26 -26,-46c5,-7 22,-32 38,-54l30,-42l-38,-32c-42,-35 -45,-59 -10,-82c18,-13 23,-12 44,6c39,34 59,35 91,4l29,-28l22,21l21,21l-22,28c-11,14 -21,30 -21,35c0,12 39,46 95,84c28,19 80,62 118,97c67,63 67,63 67,118c0,62 -31,116 -85,150c-41,25 -39,25 -60,-6z" id="svg_22"/>
   <path d="m6374.17,-5842.38l-20,-28l122,-92c67,-50 142,-107 167,-126c25,-20 96,-74 159,-121c119,-89 135,-93 160,-46c12,21 -6,40 -114,119c-38,29 -85,64 -104,79c-18,16 -53,42 -76,58c-23,17 -88,65 -144,108c-57,42 -109,77 -116,77c-8,0 -23,-13 -34,-28z" id="svg_23"/>
   <path d="m6196.17,-6074.38c-56,-25 -129,-100 -153,-156c-38,-89 -16,-193 58,-270c121,-127 306,-108 407,42c35,53 40,67 43,130c3,55 0,80 -16,115c-24,52 -92,119 -144,142c-49,23 -142,22 -195,-3zm140,-71c54,-15 111,-74 131,-136c17,-50 17,-53 -5,-103c-13,-31 -37,-63 -62,-83c-36,-28 -49,-32 -102,-32c-52,0 -67,4 -99,28c-60,46 -89,98 -89,162c0,58 13,86 60,130c45,41 100,53 166,34z" id="svg_24"/>
   <path d="m2286.17,-6098.38c-39,-18 -73,-70 -73,-111c0,-30 28,-83 95,-180c65,-93 28,-178 -58,-134c-29,15 -117,100 -117,114c0,6 -7,20 -15,32c-13,19 -19,20 -45,11c-39,-13 -38,-28 6,-94c57,-86 156,-154 223,-154c30,0 97,38 115,64c37,57 17,121 -71,237c-47,62 -55,105 -25,132c23,21 45,21 81,3c40,-21 110,-101 133,-153c15,-34 23,-43 36,-38c9,4 25,10 35,12c12,4 16,11 11,22c-3,9 -9,25 -12,36c-10,38 -90,132 -144,168c-62,43 -126,55 -175,33z" id="svg_25"/>
   <path d="m2664.17,-6451.38c-34,-49 -71,-101 -83,-117c-24,-29 -66,-87 -143,-196c-25,-36 -62,-87 -81,-114c-18,-26 -34,-54 -34,-61c0,-11 60,-51 65,-43c0,2 26,36 56,77c30,41 61,85 69,97c8,12 54,76 101,141c47,65 109,150 137,190l51,72l-33,20c-18,12 -36,21 -39,21c-3,0 -33,-39 -66,-87z" id="svg_26"/>
   <path d="m5778.17,-6428.38c-5,-3 -22,-7 -37,-10c-46,-10 -124,-81 -151,-137l-24,-52l-18,31l-19,31l-28,-20c-27,-20 -37,-52 -19,-63c5,-4 25,-34 45,-69c33,-59 115,-190 133,-212c4,-6 17,-27 27,-48c27,-53 41,-62 72,-49c36,17 39,38 11,80c-13,20 -42,66 -63,102c-21,36 -44,72 -52,81c-7,10 -16,42 -19,72c-5,45 -2,62 15,89c68,110 207,112 266,3c9,-16 44,-75 79,-130c67,-106 80,-115 121,-75c18,17 16,20 -43,115c-34,53 -61,100 -62,104c-2,19 -71,100 -106,123c-37,25 -104,43 -128,34z" id="svg_27"/>
   <path d="m2911.17,-6529.38c-7,-14 -41,-72 -75,-130c-35,-57 -63,-106 -63,-109c0,-2 -16,-28 -35,-58c-20,-29 -45,-71 -56,-93c-11,-22 -40,-71 -64,-110c-24,-38 -44,-74 -45,-80c0,-5 13,-17 29,-27c23,-13 33,-14 44,-5c8,7 92,144 187,306l171,295l-23,18c-32,25 -55,22 -70,-7z" id="svg_28"/>
   <path d="m3103.17,-6670.38c-11,-25 -20,-49 -20,-52c-1,-4 -9,-25 -20,-47c-11,-22 -19,-45 -20,-52c0,-12 -9,-34 -52,-129c-10,-22 -18,-45 -18,-51c0,-6 -7,-24 -15,-39c-21,-40 -19,-48 15,-61c41,-15 54,-2 85,82c14,39 30,79 34,90c58,130 82,159 139,170c60,11 110,-4 154,-46l41,-39l-5,-62c-3,-35 -13,-76 -22,-93c-8,-16 -32,-72 -52,-124l-36,-95l24,-18c47,-36 51,-31 129,169c46,119 51,139 47,193c-5,71 -39,121 -109,158c-38,20 -55,23 -132,20l-88,-3l6,31c5,27 2,32 -17,38c-41,11 -48,6 -68,-40z" id="svg_29"/>
   <path d="m5169.17,-6721.38c-59,-17 -109,-54 -141,-101l-24,-35l-12,26c-6,14 -18,28 -25,31c-20,8 -64,-11 -64,-26c0,-7 21,-71 46,-143c25,-71 49,-143 54,-160c4,-16 20,-64 34,-105c15,-41 40,-117 57,-167c17,-51 35,-93 40,-93c14,0 69,29 69,36c0,3 -18,60 -41,126c-22,66 -38,122 -36,124c2,2 21,-3 43,-12c53,-22 129,-13 195,22c56,31 89,68 115,130c55,132 -30,308 -168,348c-67,19 -78,19 -142,-1zm152,-95c51,-31 85,-99 85,-169c0,-51 -4,-65 -29,-97c-34,-41 -104,-81 -147,-82c-42,0 -119,44 -145,83c-28,43 -39,130 -23,180c15,45 83,105 125,110c48,6 98,-3 134,-25z" id="svg_30"/>
   <path d="m4015.17,-6877.38c-7,-8 -14,-43 -17,-78c-8,-95 -27,-170 -43,-177c-8,-3 -54,2 -101,12c-47,9 -117,18 -156,19l-70,2l-3,-32c-3,-32 -2,-33 36,-33c21,0 52,-5 68,-10c16,-6 72,-16 124,-23l95,-12l-1,-50c-1,-54 -22,-176 -33,-187c-6,-6 -120,7 -272,33c-90,15 -109,10 -109,-29c0,-26 4,-29 58,-40c31,-7 91,-17 132,-22c41,-5 95,-14 120,-19c25,-6 69,-10 98,-11c60,0 65,6 76,100c10,94 37,271 51,350c25,130 30,210 14,210c-8,0 -23,3 -35,6c-12,3 -25,-1 -32,-9z" id="svg_31"/>
   <path d="m4464.17,-6887.38c-14,-35 -2,-77 25,-89c51,-24 95,30 73,89c-7,19 -16,23 -49,23c-33,0 -42,-4 -49,-23z" id="svg_32"/>
  </g>
 </g>
</svg>